<svg width="25" height="33" viewBox="0 0 25 33" fill="none" xmlns="http://www.w3.org/2000/svg">
<path d="M6.19244 23.3727C5.63837 22.8126 5.9272 22.9705 4.5908 22.6089C3.98445 22.4446 3.45142 22.1288 2.9694 21.7504L0.0766373 28.9201C-0.203267 29.6142 0.319561 30.3683 1.06045 30.3399L4.41993 30.2104L6.73057 32.6776C7.24065 33.2216 8.13583 33.0521 8.41573 32.3579L11.7344 24.1326C11.0433 24.5219 10.2762 24.75 9.48306 24.75C8.23976 24.75 7.07168 24.2608 6.19244 23.3727ZM24.4072 28.9201L21.5145 21.7504C21.0324 22.1294 20.4994 22.4446 19.8931 22.6089C18.5497 22.9724 18.8442 22.8139 18.2914 23.3727C17.4122 24.2608 16.2435 24.75 15.0002 24.75C14.207 24.75 13.44 24.5212 12.7488 24.1326L16.0675 32.3579C16.3474 33.0521 17.2432 33.2216 17.7527 32.6776L20.0639 30.2104L23.4234 30.3399C24.1643 30.3683 24.6871 29.6136 24.4072 28.9201ZM16.7689 21.9141C17.7431 20.9119 17.8547 20.9983 19.2421 20.6161C20.1277 20.3718 20.8201 19.6596 21.0573 18.7483C21.5342 16.9178 21.4105 17.1389 22.7119 15.7996C23.3603 15.1325 23.6134 14.1599 23.3762 13.2486C22.9 11.4195 22.8993 11.6747 23.3762 9.84361C23.6134 8.93226 23.3603 7.95968 22.7119 7.2926C21.4105 5.95329 21.5342 6.17372 21.0573 4.34393C20.8201 3.43258 20.1277 2.72039 19.2421 2.47612C17.4645 1.98564 17.6787 2.1139 16.3761 0.773942C15.7277 0.106865 14.7821 -0.154165 13.8965 0.0901077C12.1195 0.579942 12.3675 0.580586 10.5874 0.0901077C9.70176 -0.154165 8.75621 0.106221 8.10777 0.773942C6.80644 2.11325 7.02068 1.98564 5.24243 2.47612C4.35681 2.72039 3.66438 3.43258 3.4272 4.34393C2.95091 6.17372 3.07397 5.95329 1.77264 7.2926C1.1242 7.95968 0.870442 8.93226 1.10826 9.84361C1.58455 11.6715 1.58519 11.4162 1.10826 13.248C0.87108 14.1593 1.1242 15.1319 1.77264 15.7996C3.07397 17.1389 2.95027 16.9178 3.4272 18.7483C3.66438 19.6596 4.35681 20.3718 5.24243 20.6161C6.66936 21.0092 6.77584 20.9474 7.71502 21.9141C8.55855 22.7823 9.87263 22.9376 10.8864 22.2893C11.2918 22.0291 11.7621 21.8909 12.2423 21.8909C12.7224 21.8909 13.1927 22.0291 13.5981 22.2893C14.6112 22.9376 15.9253 22.7823 16.7689 21.9141ZM6.22687 11.3415C6.22687 7.92359 8.92007 5.1528 12.2419 5.1528C15.5638 5.1528 18.257 7.92359 18.257 11.3415C18.257 14.7593 15.5638 17.5301 12.2419 17.5301C8.92007 17.5301 6.22687 14.7593 6.22687 11.3415Z" fill="#EF5DA8"/>
</svg>
