<svg width="186" height="30" viewBox="0 0 186 30" fill="none" xmlns="http://www.w3.org/2000/svg">
<path d="M11.94 29.4C9.75333 29.4 7.66 29.0933 5.66 28.48C3.66 27.84 2.07333 27.0267 0.9 26.04L2.7 22C3.82 22.88 5.20667 23.6133 6.86 24.2C8.51333 24.7867 10.2067 25.08 11.94 25.08C13.4067 25.08 14.5933 24.92 15.5 24.6C16.4067 24.28 17.0733 23.8533 17.5 23.32C17.9267 22.76 18.14 22.1333 18.14 21.44C18.14 20.5867 17.8333 19.9067 17.22 19.4C16.6067 18.8667 15.8067 18.4533 14.82 18.16C13.86 17.84 12.78 17.5467 11.58 17.28C10.4067 17.0133 9.22 16.7067 8.02 16.36C6.84667 15.9867 5.76667 15.52 4.78 14.96C3.82 14.3733 3.03333 13.6 2.42 12.64C1.80667 11.68 1.5 10.4533 1.5 8.96C1.5 7.44 1.9 6.05333 2.7 4.8C3.52667 3.52 4.76667 2.50666 6.42 1.76C8.1 0.986665 10.22 0.599998 12.78 0.599998C14.46 0.599998 16.1267 0.813332 17.78 1.24C19.4333 1.66667 20.8733 2.28 22.1 3.08L20.46 7.12C19.2067 6.37333 17.9133 5.82667 16.58 5.48C15.2467 5.10667 13.9667 4.92 12.74 4.92C11.3 4.92 10.1267 5.09333 9.22 5.44C8.34 5.78667 7.68667 6.24 7.26 6.8C6.86 7.36 6.66 8 6.66 8.72C6.66 9.57333 6.95333 10.2667 7.54 10.8C8.15333 11.3067 8.94 11.7067 9.9 12C10.8867 12.2933 11.98 12.5867 13.18 12.88C14.38 13.1467 15.5667 13.4533 16.74 13.8C17.94 14.1467 19.02 14.6 19.98 15.16C20.9667 15.72 21.7533 16.48 22.34 17.44C22.9533 18.4 23.26 19.6133 23.26 21.08C23.26 22.5733 22.8467 23.96 22.02 25.24C21.22 26.4933 19.98 27.5067 18.3 28.28C16.62 29.0267 14.5 29.4 11.94 29.4ZM48.2963 0.999998H53.4963V29H48.2963V0.999998ZM33.8163 29H28.6163V0.999998H33.8163V29ZM48.6963 17H33.3763V12.56H48.6963V17ZM65.9991 12.64H79.9191V16.92H65.9991V12.64ZM66.3991 24.64H82.1991V29H61.1991V0.999998H81.6391V5.36H66.3991V24.64ZM90.6759 29V3L92.9559 5.36H84.7559V0.999998H95.8759V29H90.6759ZM103.63 29V0.999998H116.75C120.11 0.999998 122.67 1.66666 124.43 3C126.19 4.30667 127.07 6.06667 127.07 8.28C127.07 9.77333 126.724 11.0533 126.03 12.12C125.337 13.16 124.404 13.9733 123.23 14.56C122.084 15.12 120.83 15.4 119.47 15.4L120.19 13.96C121.764 13.96 123.177 14.2533 124.43 14.84C125.684 15.4 126.67 16.2267 127.39 17.32C128.137 18.4133 128.51 19.7733 128.51 21.4C128.51 23.8 127.59 25.6667 125.75 27C123.91 28.3333 121.177 29 117.55 29H103.63ZM108.83 24.92H117.23C119.177 24.92 120.67 24.6 121.71 23.96C122.75 23.32 123.27 22.2933 123.27 20.88C123.27 19.4933 122.75 18.48 121.71 17.84C120.67 17.1733 119.177 16.84 117.23 16.84H108.43V12.8H116.19C118.004 12.8 119.39 12.48 120.35 11.84C121.337 11.2 121.83 10.24 121.83 8.96C121.83 7.65333 121.337 6.68 120.35 6.04C119.39 5.4 118.004 5.08 116.19 5.08H108.83V24.92ZM139.06 12.64H152.98V16.92H139.06V12.64ZM139.46 24.64H155.26V29H134.26V0.999998H154.7V5.36H139.46V24.64ZM161.257 29V0.999998H172.777C175.257 0.999998 177.377 1.4 179.137 2.2C180.924 3 182.297 4.14666 183.257 5.64C184.217 7.13333 184.697 8.90667 184.697 10.96C184.697 13.0133 184.217 14.7867 183.257 16.28C182.297 17.7467 180.924 18.88 179.137 19.68C177.377 20.4533 175.257 20.84 172.777 20.84H164.137L166.457 18.48V29H161.257ZM179.577 29L172.497 18.84H178.057L185.177 29H179.577ZM166.457 19.04L164.137 16.56H172.537C174.83 16.56 176.55 16.0667 177.697 15.08C178.87 14.0933 179.457 12.72 179.457 10.96C179.457 9.17333 178.87 7.8 177.697 6.84C176.55 5.88 174.83 5.4 172.537 5.4H164.137L166.457 2.84V19.04Z" fill="white"/>
</svg>
