<svg width="121" height="48" viewBox="0 0 121 48" fill="none" xmlns="http://www.w3.org/2000/svg">
<path fill-rule="evenodd" clip-rule="evenodd" d="M13.8747 1.95C10.3437 5.54319 11.5393 9.33009 18.3237 16.0442C22.7212 20.396 23.3299 22.5969 20.6329 24.3955C19.3182 25.272 18.6949 25.3161 16.7683 24.6689C15.5052 24.2452 14.3172 23.4897 14.1293 22.9908C13.4984 21.3186 12.6503 22.0631 12.6503 24.2886C12.6503 26.1551 12.9426 26.597 14.5604 27.1704C15.6109 27.5429 16.4704 28.1344 16.4704 28.4843C16.4704 28.8348 17.1147 29.2144 17.9029 29.3278C20.1121 29.6472 19.8256 32.0697 17.547 32.3353C15.46 32.5789 15.5599 33.9674 17.6871 34.2842C20.3483 34.6813 23.0319 30.2109 20.9271 28.8873C19.953 28.2744 20.1701 27.2675 21.276 27.2675C23.1497 27.2675 25.3838 24.0216 25.3838 21.2992C25.3838 17.7824 24.6452 16.5528 19.5996 11.6651C15.0551 7.26268 14.3324 5.56393 16.1972 3.66561C17.5877 2.25062 20.6775 2.39379 22.2004 3.94354L23.4738 5.23933V3.04104C23.4738 0.501313 22.7467 0.0562164 18.5975 0.0562164C16.2832 0.0562164 15.3798 0.418385 13.8747 1.95ZM30.9018 0.488346C30.6682 0.725473 30.4772 6.9938 30.4772 14.418V27.9154L34.7747 27.9064C40.6397 27.8947 41.9373 27.4697 41.9373 25.5597C41.9373 24.1784 41.7399 24.0566 40.1864 24.4784C39.2238 24.7401 37.5761 24.9643 36.5256 24.9766L34.6155 24.9999L34.4322 18.6059L34.2495 12.2119L37.2195 12.6648C38.8532 12.9142 40.5831 13.2719 41.0638 13.4591C41.7176 13.7144 41.9373 13.1248 41.9373 11.117C41.9373 8.66406 41.8309 8.49108 40.7059 9.10398C40.0285 9.47263 38.3095 9.77455 36.8859 9.77455H34.2972V6.21116V2.64777H36.8859C38.3095 2.64777 40.0285 2.94969 40.7059 3.31834C41.7978 3.9131 41.9373 3.76602 41.9373 2.02255V0.0562164H36.6319C33.7134 0.0562164 31.1349 0.250571 30.9018 0.488346ZM48.0538 1.08117C47.8411 1.64484 47.6673 7.73304 47.6673 14.611C47.6673 28.8095 47.2713 27.8902 53.3974 27.9044C58.9632 27.9167 62.3108 24.1454 62.3108 17.8615C62.3108 14.1627 60.8668 11.2142 58.7976 10.6855C56.894 10.1996 56.7507 9.40202 58.4831 8.94072C61.2425 8.20666 61.5315 2.8797 58.9129 1.01313C56.9659 -0.374645 48.5829 -0.322155 48.0538 1.08117ZM68.3254 0.884218C68.1535 1.33968 68.0911 7.53545 68.186 14.6519L68.3592 27.5915L71.8609 27.7943C77.4025 28.1143 79.5009 27.5138 79.5009 25.6064C79.5009 24.1745 79.3144 24.054 77.7501 24.4784C76.7874 24.7401 75.1397 24.9643 74.0892 24.9766L72.1792 24.9999L71.9958 18.6059L71.8131 12.2119L74.7832 12.6648C76.4169 12.9142 78.1467 13.2719 78.6274 13.4591C79.2813 13.7144 79.5009 13.1248 79.5009 11.117C79.5009 8.66406 79.3946 8.49108 78.2696 9.10398C77.5922 9.47263 75.8732 9.77455 74.4496 9.77455H71.8609V6.21116V2.64777H74.4496C75.8732 2.64777 77.5922 2.94969 78.2696 3.31834C79.3615 3.9131 79.5009 3.76602 79.5009 2.02255V0.0562164H74.0695C70.2475 0.0562164 68.5451 0.301766 68.3254 0.884218ZM85.5156 0.884218C85.3437 1.33968 85.2813 7.53545 85.3761 14.6519L85.5493 27.5915L87.3002 27.7962L89.051 28.0016V19.8596C89.051 12.2773 89.1344 11.7182 90.2671 11.7182C91.2749 11.7182 91.7028 12.692 92.7609 17.3872C93.4632 20.5055 94.2367 24.1499 94.4806 25.4859C94.8893 27.7327 95.0867 27.9154 97.1024 27.9154C99.0792 27.9154 99.2193 27.7956 98.6062 26.63C98.2344 25.9225 97.2074 22.0857 96.3244 18.1032C94.7276 10.9077 94.8008 9.8251 96.8827 9.78428C97.1635 9.7791 97.8059 8.76838 98.3108 7.53804C99.3944 4.89919 98.7985 2.66786 96.5899 1.09349C94.7391 -0.22561 85.9963 -0.39018 85.5156 0.884218ZM56.5012 3.23217C57.7599 4.04332 57.5803 7.25426 56.2204 8.26626C55.5844 8.73922 54.2594 9.12666 53.2758 9.12666C51.5542 9.12666 51.4874 9.0055 51.4874 5.88721C51.4874 2.66202 51.4969 2.64778 53.5565 2.6575C54.6943 2.66333 56.0198 2.92183 56.5012 3.23217ZM94.6537 3.42524C96.7758 5.58465 94.3933 9.12666 90.8191 9.12666C89.1217 9.12666 89.051 8.99708 89.051 5.88721V2.64777H91.4704C92.801 2.64777 94.2335 2.99763 94.6537 3.42524ZM57.1658 13.1041C58.4608 14.3324 58.5984 14.9609 58.3692 18.6195C58.0731 23.3537 57.241 24.5432 53.831 25.1062L51.4874 25.4936V18.6059V11.7182H53.5954C54.8694 11.7182 56.2828 12.267 57.1658 13.1041ZM2.07458 34.4164C0.452342 35.0409 -0.286204 36.7313 0.465707 38.099C0.789136 38.6866 0.739473 39.8463 0.34601 40.9069C-0.158235 42.2675 -0.118122 42.9653 0.51091 43.7369C1.49648 44.9452 4.43218 45.0897 5.51961 43.9831C6.44024 43.0462 6.52938 40.456 5.65968 39.9098C5.26304 39.6597 5.29932 39.0883 5.76027 38.3374C7.16477 36.049 4.68558 33.4121 2.07458 34.4164ZM40.9823 34.3943C41.1987 34.7507 41.7883 35.0422 42.2932 35.0422C42.998 35.0422 43.2106 36.0186 43.2106 39.2535C43.2106 43.0326 43.0801 43.4648 41.9373 43.4648C41.2369 43.4648 40.6639 43.7563 40.6639 44.1127C40.6639 44.469 42.0964 44.7606 43.8473 44.7606C45.5981 44.7606 47.0306 44.469 47.0306 44.1127C47.0306 43.7563 46.6366 43.4648 46.1552 43.4648C45.0614 43.4648 44.5298 40.8356 44.8118 36.8239L45.029 33.7464H42.8089C41.491 33.7464 40.7486 34.0095 40.9823 34.3943ZM106.532 34.3483C106.763 34.7299 107.366 35.0422 107.87 35.0422C108.575 35.0422 108.788 36.0186 108.788 39.2535C108.788 43.0326 108.657 43.4648 107.515 43.4648C106.814 43.4648 106.241 43.7563 106.241 44.1127C106.241 44.469 107.674 44.7606 109.425 44.7606C111.175 44.7606 112.608 44.469 112.608 44.1127C112.608 43.7563 112.017 43.4648 111.296 43.4648C110.073 43.4648 109.997 43.1447 110.182 38.7676L110.38 34.0704L108.245 33.8624C106.848 33.7263 106.256 33.8941 106.532 34.3483ZM66.9267 35.0623C65.1535 35.7879 65.0224 36.9898 66.7675 36.5259C67.946 36.2123 68.0408 36.5058 68.0408 40.4735C68.0408 42.8998 68.3172 44.7606 68.6775 44.7606C69.0487 44.7606 69.3142 42.6011 69.3142 39.5774C69.3142 36.7267 69.0996 34.4131 68.8367 34.4351C68.5737 34.4578 67.7149 34.7403 66.9267 35.0623ZM4.3736 35.6817C5.09877 36.1521 5.16435 36.5693 4.64674 37.4148C3.69873 38.9619 2.53744 39.2315 2.07776 38.0115C1.64291 36.8589 2.1618 35.037 2.92135 35.0519C3.19448 35.0578 3.84835 35.3409 4.3736 35.6817ZM16.4927 38.2389C14.8309 41.3986 16.5672 45.1402 19.436 44.5824C20.7189 44.333 20.9271 44.5513 20.9271 46.1464C20.9271 47.1655 21.2136 48 21.5638 48C21.9381 48 22.2004 45.7324 22.2004 42.4929V36.9859H19.676C17.8322 36.9859 16.974 37.3234 16.4927 38.2389ZM24.1104 37.6597C24.1104 38.0303 24.7064 39.5217 25.4341 40.9743C26.8621 43.8224 26.6705 46.7042 25.0534 46.7042C24.5345 46.7042 24.1104 46.9958 24.1104 47.3521C24.1104 48.3959 25.7422 48.0972 26.7666 46.8662C28.0196 45.3611 31.2475 37.5541 30.8044 37.1025C30.2384 36.5272 29.4133 37.7821 28.5372 40.5493L27.7172 43.1408L26.4712 40.0634C25.3316 37.2489 24.1104 36.0056 24.1104 37.6597ZM33.6605 41.0106C33.6605 43.0786 33.9464 44.7606 34.2972 44.7606C34.6474 44.7606 34.9339 43.6527 34.9339 42.2986C34.9339 39.6157 35.822 38.2817 37.6079 38.2817C38.2382 38.2817 38.7539 38.0057 38.7539 37.6681C38.7539 37.3306 37.6079 37.1012 36.2072 37.1576L33.6605 37.2612V41.0106ZM48.304 37.3312C48.304 37.5217 49.0279 39.1297 49.9122 40.9063C51.5517 44.1988 51.3912 46.1691 49.4252 46.883C48.984 47.0437 48.7961 47.367 49.0088 47.6028C49.6697 48.3343 51.5587 47.2426 52.1164 45.8063C52.4093 45.0528 53.3859 42.7605 54.2881 40.7112C55.4723 38.0212 55.6932 36.9859 55.0826 36.9859C54.6179 36.9859 53.8596 38.1521 53.3974 39.5774C52.9352 41.0028 52.3596 42.169 52.1189 42.169C51.8776 42.169 51.2301 41.0028 50.6801 39.5774C50.13 38.1521 49.3704 36.9859 48.9916 36.9859C48.6134 36.9859 48.304 37.1414 48.304 37.3312ZM82.6913 37.9493C81.5472 39.3513 82.315 40.6879 84.551 41.1874C85.6257 41.4278 86.5043 42.0381 86.5043 42.5441C86.5043 43.6715 83.8787 43.7732 82.8116 42.6873C82.2176 42.0828 82.0476 42.1392 82.0476 42.9419C82.0476 44.9659 86.7068 45.5011 87.7108 43.5918C88.5188 42.0556 87.7713 40.9328 85.5366 40.3245C84.5389 40.053 83.6196 39.5178 83.4948 39.1362C83.1523 38.0899 85.2647 37.5036 86.2821 38.3627C87.2862 39.2107 88.1266 38.7319 87.4854 37.6772C86.864 36.6535 83.5966 36.8395 82.6913 37.9493ZM89.6877 37.6597C89.6877 38.0303 90.2836 39.5217 91.0113 40.9743C92.4394 43.8224 92.2477 46.7042 90.6306 46.7042C90.1117 46.7042 89.6877 46.9958 89.6877 47.3521C89.6877 48.3959 91.3195 48.0972 92.3439 46.8662C93.1824 45.8587 96.6911 38.0679 96.6911 37.2133C96.6911 37.0287 96.3651 36.9885 95.9666 37.1239C95.568 37.2587 94.7588 38.6263 94.1686 40.1618L93.0958 42.9549L91.9759 39.9701C90.9585 37.2606 89.6877 35.9765 89.6877 37.6597ZM99.2378 40.9795C99.2378 45.5024 100.359 46.0667 100.635 41.6831C100.813 38.8648 100.977 38.5881 102.58 38.4009C105.308 38.0815 104.637 36.9833 101.784 37.0967L99.2378 37.1984V40.9795ZM113.881 37.3312C113.881 37.5217 114.605 39.1297 115.489 40.9063C117.129 44.1988 116.968 46.1691 115.002 46.883C114.561 47.0437 114.373 47.367 114.586 47.6028C115.283 48.3745 116.876 47.3152 117.697 45.5348C120.962 38.4547 121.471 36.9859 120.66 36.9859C120.195 36.9859 119.437 38.1521 118.975 39.5774C118.512 41.0028 117.965 42.1658 117.759 42.1625C117.552 42.1586 116.903 40.9924 116.316 39.571C115.729 38.1488 114.941 36.9859 114.565 36.9859C114.189 36.9859 113.881 37.1414 113.881 37.3312ZM20.8042 40.7618C20.985 43.2529 20.8781 43.4648 19.4398 43.4648C17.0765 43.4648 16.2806 40.5111 18.1359 38.6231C19.69 37.0416 20.5871 37.7608 20.8042 40.7618ZM5.01027 41.8451C5.01027 43.1305 4.68939 43.4648 3.45616 43.4648C2.60111 43.4648 1.71677 43.159 1.48948 42.7858C0.7503 41.5678 1.75114 40.2253 3.39885 40.2253C4.69321 40.2253 5.01027 40.5441 5.01027 41.8451Z" fill="url(#paint0_linear_1006_6)"/>
<defs>
<linearGradient id="paint0_linear_1006_6" x1="101.5" y1="2.5" x2="3" y2="42.5" gradientUnits="userSpaceOnUse">
<stop offset="0.0116693" stop-color="#8EC2F2"/>
<stop offset="0.989328" stop-color="white"/>
</linearGradient>
</defs>
</svg>
